<svg width="36" height="36" viewBox="0 0 36 36" fill="none" xmlns="http://www.w3.org/2000/svg">
<path d="M17.7086 0.0830078C7.91584 0.0830078 0 8.12909 0 18.083C0 28.0369 7.91584 36.083 17.7086 36.083C27.5014 36.083 35.4173 28.0369 35.4173 18.083C35.4173 8.12909 27.4198 0.0830078 17.7086 0.0830078ZM15.1788 25.7143L13.8731 29.613C8.97673 27.954 5.71246 23.2259 5.71246 17.9171C5.71246 12.6084 8.97673 7.96319 13.9547 6.22126L15.2604 10.1199C11.9962 11.1982 9.8744 14.3503 9.8744 17.8342C9.7928 21.4839 11.9146 24.636 15.1788 25.7143ZM21.2993 29.6959L20.0752 25.7143C23.4211 24.636 25.6245 21.4839 25.6245 17.9171C25.6245 14.3503 23.4211 11.2812 20.1568 10.2028L21.4625 6.22126C26.4405 7.88024 29.7864 12.6084 29.7864 17.9171C29.7048 23.3918 26.2773 28.1199 21.2993 29.6959Z" fill="#08C2F5"/>
</svg>
