<svg  viewBox="0 0 284 40" fill="currentColor" xmlns="http://www.w3.org/2000/svg">
<g clip-path="url(#clip0_16_963)">
<path d="M213.778 0H212.875V39.8161H213.778V0Z" fill="currentColor"/>
<path d="M225.617 11.4946H230.951V18.759H230.047V12.2303H226.431V18.759H225.527V11.4946H225.617Z" fill="currentColor"/>
<path d="M232.123 15.9997C232.123 15.1721 232.394 14.5284 232.846 14.0686C233.298 13.6089 233.931 13.333 234.564 13.333C234.835 13.333 235.016 13.333 235.287 13.425C235.468 13.5169 235.739 13.6089 235.919 13.7008C236.1 13.7928 236.281 13.9767 236.462 14.1606C236.643 14.3445 236.733 14.6204 236.823 14.8962C236.914 15.1721 236.914 15.5399 236.914 15.9077V16.1836H233.027C233.027 16.8273 233.208 17.287 233.479 17.5629C233.75 17.8388 234.202 18.0227 234.654 18.0227C235.468 18.0227 235.919 17.7468 236.01 17.1031H236.823C236.733 17.6548 236.462 18.0227 236.1 18.2985C235.739 18.5744 235.196 18.7583 234.564 18.7583C233.84 18.7583 233.208 18.4824 232.756 18.0227C232.394 17.5629 232.123 16.9192 232.123 15.9997ZM236.1 15.5399C236.01 14.5284 235.558 13.9767 234.654 13.9767C234.202 13.9767 233.931 14.0686 233.66 14.3445C233.389 14.6204 233.208 14.9882 233.117 15.4479H236.1V15.5399Z" fill="currentColor"/>
<path d="M238.089 13.4248H238.902V15.6317H241.433V13.4248H242.247V18.7581H241.433V16.3673H238.902V18.7581H238.089V13.4248Z" fill="currentColor"/>
<path d="M243.423 15.9997C243.423 15.6319 243.514 15.264 243.604 14.8962C243.695 14.5284 243.875 14.2525 244.146 14.0686C244.418 13.7928 244.598 13.6089 244.96 13.5169C245.231 13.425 245.593 13.333 245.954 13.333C246.226 13.333 246.497 13.333 246.768 13.425C247.039 13.5169 247.22 13.6089 247.491 13.7008C247.672 13.8847 247.853 14.0686 248.033 14.2525C248.214 14.5284 248.214 14.8043 248.305 15.0801H247.491C247.401 14.7123 247.31 14.3445 247.039 14.1606C246.768 13.9767 246.497 13.8847 246.045 13.8847C245.593 13.8847 245.141 14.0686 244.87 14.4365C244.598 14.8043 244.418 15.264 244.418 15.9077V15.9997C244.418 16.6434 244.598 17.1031 244.87 17.4709C245.141 17.8388 245.593 18.0227 246.135 18.0227C246.497 18.0227 246.858 17.9307 247.129 17.6548C247.401 17.4709 247.581 17.1031 247.581 16.7353H248.305C248.214 17.287 248.033 17.7468 247.581 18.2066C247.129 18.5744 246.677 18.7583 246.045 18.7583C245.322 18.7583 244.689 18.4824 244.237 18.0227C243.695 17.5629 243.423 16.9192 243.423 15.9997Z" fill="currentColor"/>
<path d="M249.39 13.4248H250.203V17.4708L252.825 13.4248H253.638V18.7581H252.825V14.7122L250.203 18.7581H249.39V13.4248Z" fill="currentColor"/>
<path d="M254.814 15.9997C254.814 15.1721 255.085 14.5284 255.537 14.0686C255.989 13.6089 256.622 13.333 257.345 13.333C258.068 13.333 258.701 13.6089 259.153 14.0686C259.605 14.5284 259.876 15.1721 259.876 15.9997V16.0916C259.876 16.9192 259.605 17.5629 259.153 18.0227C258.701 18.4824 258.068 18.7583 257.345 18.7583C256.622 18.7583 255.989 18.4824 255.537 18.0227C255.085 17.4709 254.814 16.8273 254.814 15.9997ZM256.079 17.5629C256.351 17.9307 256.803 18.1146 257.345 18.1146C257.887 18.1146 258.249 17.9307 258.61 17.5629C258.882 17.1951 259.062 16.7353 259.062 16.0916V15.9997C259.062 15.356 258.882 14.8962 258.61 14.5284C258.339 14.1606 257.887 13.9767 257.345 13.9767C256.803 13.9767 256.441 14.1606 256.079 14.5284C255.808 14.8962 255.627 15.356 255.627 15.9997V16.0916C255.627 16.7353 255.808 17.1951 256.079 17.5629Z" fill="currentColor"/>
<path d="M261.049 13.4248H261.862V15.6317H264.393V13.4248H265.207V18.7581H264.393V16.3673H261.862V18.7581H261.049V13.4248Z" fill="currentColor"/>
<path d="M266.745 13.4248H267.558V15.6317H270.089V13.4248H270.903V18.7581H270.089V16.3673H267.558V18.7581H266.745V13.4248Z" fill="currentColor"/>
<path d="M272.439 13.4248H273.253V15.2639H274.157C274.428 15.2639 274.699 15.2639 274.97 15.3558C275.241 15.4478 275.422 15.5397 275.603 15.6317C275.784 15.7237 275.964 15.9076 276.055 16.1834C276.145 16.3673 276.236 16.6432 276.236 16.9191C276.236 17.1949 276.145 17.4708 276.055 17.6547C275.964 17.8386 275.784 18.0225 275.603 18.2064C275.422 18.2984 275.241 18.4823 274.97 18.4823C274.699 18.5742 274.518 18.5742 274.157 18.5742H272.439V13.4248ZM274.247 18.0225C274.609 18.0225 274.88 17.9305 275.061 17.7466C275.241 17.5627 275.332 17.2869 275.332 16.9191C275.332 16.5512 275.241 16.3673 275.061 16.1834C274.88 15.9995 274.609 15.9076 274.247 15.9076H273.253V18.0225H274.247ZM276.959 13.4248H277.772V18.7581H276.959V13.4248Z" fill="currentColor"/>
<path d="M279.308 13.4248H280.121V17.4708L282.743 13.4248H283.556V18.7582H282.743V14.7122L280.121 18.7582H279.308V13.4248ZM280.845 11.126C280.845 11.3099 280.935 11.4938 281.025 11.6777C281.116 11.8616 281.296 11.8616 281.477 11.8616C281.658 11.8616 281.839 11.7697 281.929 11.6777C282.02 11.4938 282.11 11.4018 282.11 11.126H282.833C282.833 11.4938 282.652 11.8616 282.381 12.0455C282.11 12.3214 281.839 12.4133 281.477 12.4133C281.116 12.4133 280.845 12.3214 280.573 12.0455C280.302 11.7697 280.212 11.4938 280.212 11.126H280.845Z" fill="currentColor"/>
<path d="M225.164 26.1143C225.164 25.6545 225.255 25.2867 225.345 25.0108C225.526 24.643 225.707 24.3671 225.887 24.1832C226.159 23.9993 226.43 23.8154 226.701 23.6315C227.063 23.5396 227.334 23.4476 227.786 23.4476V20.9648H228.599V23.4476C228.961 23.4476 229.322 23.5396 229.594 23.6315C229.955 23.7235 230.226 23.9074 230.407 24.1832C230.678 24.3671 230.859 24.643 230.949 25.0108C231.13 25.3786 231.13 25.7465 231.13 26.1143V26.2062C231.13 26.666 231.04 27.0338 230.949 27.3097C230.769 27.6775 230.588 27.9533 230.407 28.1373C230.136 28.3212 229.865 28.5051 229.594 28.689C229.232 28.7809 228.961 28.8729 228.509 28.8729V30.62H227.786V28.8729C227.424 28.8729 227.063 28.7809 226.791 28.689C226.43 28.597 226.159 28.4131 225.978 28.1373C225.707 27.9533 225.526 27.6775 225.435 27.3097C225.255 27.0338 225.164 26.666 225.164 26.1143ZM226.52 27.6775C226.882 28.0453 227.334 28.2292 227.876 28.2292V24.0913C227.334 24.0913 226.882 24.2752 226.52 24.643C226.159 25.0108 225.978 25.4706 225.978 26.1143V26.2062C225.978 26.8499 226.159 27.3097 226.52 27.6775ZM229.955 27.6775C230.317 27.3097 230.497 26.8499 230.497 26.2062V26.1143C230.497 25.4706 230.317 25.0108 229.955 24.643C229.594 24.2752 229.142 24.0913 228.599 24.0913V28.2292C229.142 28.2292 229.594 28.0453 229.955 27.6775Z" fill="currentColor"/>
<path d="M232.123 26.1144C232.123 25.2868 232.394 24.6432 232.846 24.1834C233.298 23.7236 233.931 23.4478 234.654 23.4478C235.377 23.4478 236.01 23.7236 236.462 24.1834C236.914 24.6432 237.185 25.2868 237.185 26.1144V26.2064C237.185 27.034 236.914 27.6776 236.462 28.1374C236.01 28.5972 235.377 28.873 234.654 28.873C233.931 28.873 233.298 28.5972 232.846 28.1374C232.394 27.5857 232.123 26.942 232.123 26.1144ZM233.479 27.6776C233.75 28.0455 234.202 28.2294 234.744 28.2294C235.287 28.2294 235.648 28.0455 236.01 27.6776C236.281 27.3098 236.462 26.8501 236.462 26.2064V26.1144C236.462 25.4707 236.281 25.011 236.01 24.6432C235.739 24.2753 235.287 24.0914 234.744 24.0914C234.202 24.0914 233.84 24.2753 233.479 24.6432C233.208 25.011 233.027 25.4707 233.027 26.1144V26.2064C233.027 26.8501 233.117 27.3098 233.479 27.6776Z" fill="currentColor"/>
<path d="M238.452 23.5396H239.265V25.7464H241.796V23.5396H242.61V28.8729H241.796V26.4821H239.265V28.8729H238.452V23.5396Z" fill="currentColor"/>
<path d="M243.875 28.1372C243.966 28.1372 243.966 28.0453 244.056 28.0453C244.147 28.0453 244.147 27.9533 244.237 27.8614C244.237 27.7694 244.327 27.6775 244.327 27.6775C244.327 27.5855 244.418 27.4936 244.418 27.4016C244.418 27.3097 244.418 27.2177 244.508 27.1258C244.508 27.0338 244.508 26.9418 244.508 26.7579C244.599 26.3901 244.599 25.9304 244.599 25.3786C244.599 24.8269 244.689 24.3671 244.689 24.0913V23.5396H248.124V28.1372H248.937V30.1602H248.305L248.214 28.8729H244.237L244.147 30.1602H243.514V28.1372H243.875ZM247.31 28.1372V24.2752H245.412C245.412 25.1947 245.322 26.0223 245.231 26.8499C245.141 27.4936 245.051 27.9533 244.87 28.2292H247.31V28.1372Z" fill="currentColor"/>
<path d="M20 0.0922852C8.94009 0.0922852 0 9.03238 0 20.0923C0 31.1522 8.94009 40.0923 20 40.0923C31.0599 40.0923 40 31.1522 40 20.0923C40 9.03238 30.9677 0.0922852 20 0.0922852ZM17.1429 28.5715L15.6682 32.9033C10.1382 31.06 6.45161 25.8066 6.45161 19.908C6.45161 14.0093 10.1382 8.84805 15.7604 6.91256L17.235 11.2444C13.5484 12.4425 11.1521 15.9448 11.1521 19.8158C11.0599 23.8711 13.4562 27.3734 17.1429 28.5715ZM24.0553 32.9955L22.6728 28.5715C26.4516 27.3734 28.9401 23.8711 28.9401 19.908C28.9401 15.9448 26.4516 12.5347 22.765 11.3365L24.2396 6.91256C29.8617 8.75588 33.6406 14.0093 33.6406 19.908C33.5484 25.9909 29.6774 31.2444 24.0553 32.9955Z" fill="#08C2F5"/>
<path d="M199.133 23.5404L201.303 26.2071C199.043 28.5979 196.241 29.2415 193.981 29.2415C191.812 29.2415 190.275 28.8737 188.919 28.23C186.027 26.7588 184.58 23.8163 184.58 20.2301C184.58 14.8048 188.196 10.7588 193.529 10.7588C199.495 10.7588 202.387 15.2645 201.936 21.1496H188.377C188.467 22.6209 189.281 24.0002 190.456 24.7358C191.45 25.3795 192.625 25.6553 194.162 25.6553C195.879 25.7473 197.597 25.1036 199.133 23.5404ZM188.558 18.0232H198.139C197.868 15.9082 196.15 14.0691 193.439 14.0691C190.546 14.0691 188.829 16.0921 188.558 18.0232ZM97.4425 28.7818H102.324L94.6404 19.6783L102.233 11.1266H97.4425L91.6575 17.9312H89.94V11.1266H86.2339V28.6898H89.94V21.7013H91.6575L97.4425 28.7818ZM113.442 14.345C110.278 14.345 108.199 16.8278 108.199 19.9542C108.199 23.0806 110.278 25.5634 113.442 25.5634C116.606 25.5634 118.594 23.1726 118.594 19.9542C118.594 16.9197 116.696 14.345 113.442 14.345ZM114.075 10.7588C118.956 10.7588 122.571 14.6209 122.571 19.9542C122.571 25.1956 119.046 29.2415 114.075 29.2415C111.724 29.2415 109.826 28.414 108.47 26.9427V36.1381H104.674V11.2186H108.38V13.3335C109.826 11.5864 111.634 10.7588 114.075 10.7588ZM163.248 11.2186H147.791V14.7128H153.666V28.7818H157.463V14.7128H163.338V11.2186H163.248ZM83.6126 11.2186H68.1556V14.7128H74.031V28.7818H77.7371V14.7128H83.6126V11.2186ZM63.5456 20.0461C63.5456 16.7358 61.2858 14.345 58.1221 14.345C55.0488 14.345 52.6986 16.7358 52.6986 20.0461C52.6986 23.3565 54.9584 25.7473 58.1221 25.7473C61.1954 25.7473 63.5456 23.3565 63.5456 20.0461ZM48.9021 20.0461C48.9021 14.8048 52.8793 10.8507 58.2125 10.8507C63.5456 10.8507 67.5228 14.8048 67.5228 20.0461C67.5228 25.2875 63.5456 29.3335 58.2125 29.3335C52.8793 29.3335 48.9021 25.2875 48.9021 20.0461ZM181.597 11.2186V28.7818H177.891V17.4714L168.852 28.7818H165.869V11.2186H169.575V22.5289L178.614 11.2186H181.597ZM145.26 28.7818H141.554V11.2186H145.26V28.7818ZM135.588 22.8048C135.588 21.2415 134.503 20.1381 133.057 20.1381H129.26V25.5634H133.057C134.503 25.5634 135.588 24.368 135.588 22.8048ZM139.384 22.8048C139.384 26.299 136.853 28.7818 133.238 28.7818H125.645V11.2186H129.351V16.9197H133.599C137.125 16.9197 139.384 19.2186 139.384 22.8048Z" fill="currentColor"/>
</g>
<defs>
<clipPath id="clip0_16_963">
<rect width="284" height="40" fill="currentColor"/>
</clipPath>
</defs>
</svg>
