<svg width="40" height="40" viewBox="0 0 24 24" fill="none" xmlns="http://www.w3.org/2000/svg">
<path d="M11.7596 0.0551758C5.25662 0.0551758 0 5.40691 0 12.0276C0 18.6483 5.25662 24 11.7596 24C18.2627 24 23.5193 18.6483 23.5193 12.0276C23.5193 5.40691 18.2085 0.0551758 11.7596 0.0551758ZM10.0797 17.1035L9.21262 19.6966C5.96111 18.5931 3.79343 15.4483 3.79343 11.9173C3.79343 8.38622 5.96111 5.29656 9.26682 4.13794L10.1339 6.73104C7.96621 7.44829 6.55722 9.54484 6.55722 11.8621C6.50303 14.2897 7.91202 16.3862 10.0797 17.1035ZM14.1441 19.7517L13.3312 17.1035C15.5531 16.3862 17.0163 14.2897 17.0163 11.9173C17.0163 9.54484 15.5531 7.50346 13.3854 6.78622L14.2525 4.13794C17.5582 5.24139 19.78 8.38622 19.78 11.9173C19.7259 15.5586 17.4498 18.7035 14.1441 19.7517Z" fill="#08C2F5"/>
</svg>
