<svg width="526" height="446" viewBox="0 0 526 446" fill="none" xmlns="http://www.w3.org/2000/svg">
<path d="M524 1.99999L443.692 2L443.692 82.3636L524 82.3636L524 1.99999Z" fill="white" fill-opacity="0.01" stroke="white" stroke-width="3" stroke-linecap="round" stroke-linejoin="round"/>
<path d="M483.846 82.3636C506.023 82.3636 524 64.3736 524 42.1818C524 19.99 506.023 1.99999 483.846 2C461.67 2 443.692 19.99 443.692 42.1818C443.692 64.3736 461.67 82.3636 483.846 82.3636Z" fill="white" fill-opacity="0.01" stroke="white" stroke-width="3" stroke-linecap="round" stroke-linejoin="round"/>
<path d="M122.462 1.99999L42.1538 2L42.1538 82.3636L122.462 82.3636L122.462 1.99999Z" fill="white" fill-opacity="0.01" stroke="white" stroke-width="3" stroke-linecap="round" stroke-linejoin="round"/>
<path d="M82.3077 82.3636C104.484 82.3636 122.462 64.3736 122.462 42.1818C122.462 19.99 104.484 1.99999 82.3077 2C60.1313 2 42.1538 19.99 42.1538 42.1818C42.1538 64.3736 60.1313 82.3636 82.3077 82.3636Z" fill="white" fill-opacity="0.01" stroke="white" stroke-width="3" stroke-linecap="round" stroke-linejoin="round"/>
<path d="M283.077 83.0337L202.769 83.0337L202.769 163.397L283.077 163.397L283.077 83.0337Z" fill="white" fill-opacity="0.01" stroke="white" stroke-width="3" stroke-linecap="round" stroke-linejoin="round"/>
<path d="M242.923 163.397C265.099 163.397 283.077 145.407 283.077 123.216C283.077 101.024 265.099 83.0337 242.923 83.0337C220.747 83.0337 202.769 101.024 202.769 123.216C202.769 145.407 220.747 163.397 242.923 163.397Z" fill="white" fill-opacity="0.01" stroke="white" stroke-width="3" stroke-linecap="round" stroke-linejoin="round"/>
<path d="M524 323.455L443.692 323.455L443.692 403.818L524 403.818L524 323.455Z" fill="white" fill-opacity="0.01" stroke="white" stroke-width="3" stroke-linecap="round" stroke-linejoin="round"/>
<path d="M483.846 403.818C506.023 403.818 524 385.828 524 363.636C524 341.445 506.023 323.455 483.846 323.455C461.67 323.455 443.692 341.445 443.692 363.636C443.692 385.828 461.67 403.818 483.846 403.818Z" fill="white" fill-opacity="0.01" stroke="white" stroke-width="3" stroke-linecap="round" stroke-linejoin="round"/>
<path d="M443.692 82.3638L524 82.3638L524 162.727L443.692 162.727L443.692 82.3638Z" fill="white" fill-opacity="0.01" stroke="white" stroke-width="3" stroke-linecap="round" stroke-linejoin="round"/>
<path d="M524 162.727L443.692 162.727L524 82.3638L524 162.727Z" fill="white" fill-opacity="0.01" stroke="white" stroke-width="3" stroke-linecap="round" stroke-linejoin="round"/>
<path d="M362.715 202.909L443.023 202.909L443.023 283.272L362.715 283.272L362.715 202.909Z" fill="white" fill-opacity="0.01" stroke="white" stroke-width="3" stroke-linecap="round" stroke-linejoin="round"/>
<path d="M443.023 283.272L362.715 283.272L443.023 202.909L443.023 283.272Z" fill="white" fill-opacity="0.01" stroke="white" stroke-width="3" stroke-linecap="round" stroke-linejoin="round"/>
<path d="M443.692 1.99999L363.385 2L363.385 82.3636L443.692 82.3636L443.692 1.99999Z" fill="white" fill-opacity="0.01" stroke="white" stroke-width="3" stroke-linecap="round" stroke-linejoin="round"/>
<path d="M202.769 83.0337L122.461 83.0337L122.461 163.397L202.769 163.397L202.769 83.0337Z" fill="white" fill-opacity="0.01" stroke="white" stroke-width="3" stroke-linecap="round" stroke-linejoin="round"/>
<path d="M443.692 162.727L524 162.727L524 243.091L443.692 243.091L443.692 162.727Z" fill="white" fill-opacity="0.01" stroke="white" stroke-width="3" stroke-linecap="round" stroke-linejoin="round"/>
<path d="M463.769 202.909C452.681 202.909 443.692 193.914 443.692 182.818C443.692 171.722 452.681 162.727 463.769 162.727C474.857 162.727 483.846 171.722 483.846 182.818C483.846 193.914 474.857 202.909 463.769 202.909Z" fill="white" fill-opacity="0.01" stroke="white" stroke-width="3" stroke-linecap="round" stroke-linejoin="round"/>
<path d="M463.769 243.091C452.681 243.091 443.692 234.095 443.692 223C443.692 211.904 452.681 202.909 463.769 202.909C474.857 202.909 483.846 211.904 483.846 223C483.846 234.096 474.857 243.091 463.769 243.091Z" fill="white" fill-opacity="0.01" stroke="white" stroke-width="3" stroke-linecap="round" stroke-linejoin="round"/>
<path d="M503.923 243.091C492.835 243.091 483.846 234.095 483.846 223C483.846 211.904 492.835 202.909 503.923 202.909C515.011 202.909 524 211.904 524 223C524 234.096 515.011 243.091 503.923 243.091Z" fill="white" fill-opacity="0.01" stroke="white" stroke-width="3" stroke-linecap="round" stroke-linejoin="round"/>
<path d="M503.923 202.909C492.835 202.909 483.846 193.914 483.846 182.818C483.846 171.722 492.835 162.727 503.923 162.727C515.011 162.727 524 171.722 524 182.818C524 193.914 515.011 202.909 503.923 202.909Z" fill="white" fill-opacity="0.01" stroke="white" stroke-width="3" stroke-linecap="round" stroke-linejoin="round"/>
<path d="M362.715 283.273L443.023 283.273L443.023 363.637L362.715 363.637L362.715 283.273Z" fill="white" fill-opacity="0.01" stroke="white" stroke-width="3" stroke-linecap="round" stroke-linejoin="round"/>
<path d="M382.792 323.455C371.704 323.455 362.715 314.46 362.715 303.364C362.715 292.268 371.704 283.273 382.792 283.273C393.88 283.273 402.869 292.268 402.869 303.364C402.869 314.46 393.88 323.455 382.792 323.455Z" fill="white" fill-opacity="0.01" stroke="white" stroke-width="3" stroke-linecap="round" stroke-linejoin="round"/>
<path d="M382.792 363.636C371.704 363.636 362.715 354.641 362.715 343.545C362.715 332.45 371.704 323.455 382.792 323.455C393.88 323.455 402.869 332.45 402.869 343.545C402.869 354.641 393.88 363.636 382.792 363.636Z" fill="white" fill-opacity="0.01" stroke="white" stroke-width="3" stroke-linecap="round" stroke-linejoin="round"/>
<path d="M422.946 363.636C411.858 363.636 402.869 354.641 402.869 343.545C402.869 332.45 411.858 323.455 422.946 323.455C434.034 323.455 443.023 332.45 443.023 343.545C443.023 354.641 434.034 363.636 422.946 363.636Z" fill="white" fill-opacity="0.01" stroke="white" stroke-width="3" stroke-linecap="round" stroke-linejoin="round"/>
<path d="M422.946 323.455C411.858 323.455 402.869 314.46 402.869 303.364C402.869 292.268 411.858 283.273 422.946 283.273C434.034 283.273 443.023 292.268 443.023 303.364C443.023 314.46 434.034 323.455 422.946 323.455Z" fill="white" fill-opacity="0.01" stroke="white" stroke-width="3" stroke-linecap="round" stroke-linejoin="round"/>
<path d="M242.923 1.99999L323.231 2L323.231 82.3636L242.923 82.3636L242.923 1.99999Z" fill="white" fill-opacity="0.01" stroke="white" stroke-width="3" stroke-linecap="round" stroke-linejoin="round"/>
<path d="M263 42.1818C251.912 42.1818 242.923 33.1868 242.923 22.0909C242.923 10.995 251.912 2 263 2C274.088 2 283.077 10.995 283.077 22.0909C283.077 33.1868 274.088 42.1818 263 42.1818Z" fill="white" fill-opacity="0.01" stroke="white" stroke-width="3" stroke-linecap="round" stroke-linejoin="round"/>
<path d="M263 82.3635C251.912 82.3635 242.923 73.3684 242.923 62.2725C242.923 51.1766 251.912 42.1816 263 42.1816C274.088 42.1816 283.077 51.1766 283.077 62.2726C283.077 73.3685 274.088 82.3635 263 82.3635Z" fill="white" fill-opacity="0.01" stroke="white" stroke-width="3" stroke-linecap="round" stroke-linejoin="round"/>
<path d="M303.154 82.3635C292.066 82.3635 283.077 73.3684 283.077 62.2725C283.077 51.1766 292.066 42.1816 303.154 42.1816C314.242 42.1816 323.231 51.1766 323.231 62.2726C323.231 73.3685 314.242 82.3635 303.154 82.3635Z" fill="white" fill-opacity="0.01" stroke="white" stroke-width="3" stroke-linecap="round" stroke-linejoin="round"/>
<path d="M303.154 42.1818C292.066 42.1818 283.077 33.1868 283.077 22.0909C283.077 10.995 292.066 2 303.154 2C314.242 2 323.231 10.995 323.231 22.0909C323.231 33.1868 314.242 42.1818 303.154 42.1818Z" fill="white" fill-opacity="0.01" stroke="white" stroke-width="3" stroke-linecap="round" stroke-linejoin="round"/>
<path d="M443.692 243.091L443.692 283.273L524 283.273L524 243.091L443.692 243.091Z" fill="white" fill-opacity="0.01" stroke="white" stroke-width="3" stroke-linecap="round" stroke-linejoin="round"/>
<path d="M443.692 283.273L524 283.273C524 272.616 519.77 262.396 512.239 254.86C504.709 247.325 494.496 243.091 483.846 243.091C473.197 243.091 462.983 247.325 455.453 254.86C447.923 262.396 443.692 272.616 443.692 283.273Z" fill="white" fill-opacity="0.01" stroke="white" stroke-width="3" stroke-linecap="round" stroke-linejoin="round"/>
<path d="M443.692 283.273L483.846 283.273L483.846 323.455L443.692 323.455L443.692 283.273Z" fill="white" fill-opacity="0.01" stroke="white" stroke-width="3" stroke-linecap="round" stroke-linejoin="round"/>
<path d="M483.846 323.455L443.692 323.455L483.846 283.273L483.846 323.455Z" fill="white" fill-opacity="0.01" stroke="white" stroke-width="3" stroke-linecap="round" stroke-linejoin="round"/>
<path d="M524 283.273L483.846 283.273L483.846 323.455L524 323.455L524 283.273Z" fill="white" fill-opacity="0.01" stroke="white" stroke-width="3" stroke-linecap="round" stroke-linejoin="round"/>
<path d="M323.231 2L363.385 2L363.385 42.1818L323.231 42.1818L323.231 2Z" fill="white" fill-opacity="0.01" stroke="white" stroke-width="3" stroke-linecap="round" stroke-linejoin="round"/>
<path d="M363.385 42.1818L323.231 42.1818L363.385 2L363.385 42.1818Z" fill="white" fill-opacity="0.01" stroke="white" stroke-width="3" stroke-linecap="round" stroke-linejoin="round"/>
<path d="M1.99996 2L42.1538 2L42.1538 42.1818L1.99996 42.1818L1.99996 2Z" fill="white" fill-opacity="0.01" stroke="white" stroke-width="3" stroke-linecap="round" stroke-linejoin="round"/>
<path d="M42.1538 42.1818L1.99996 42.1818L42.1538 2L42.1538 42.1818Z" fill="white" fill-opacity="0.01" stroke="white" stroke-width="3" stroke-linecap="round" stroke-linejoin="round"/>
<path d="M82.3076 83.0337L122.461 83.0337L122.461 123.216L82.3076 123.216L82.3076 83.0337Z" fill="white" fill-opacity="0.01" stroke="white" stroke-width="3" stroke-linecap="round" stroke-linejoin="round"/>
<path d="M122.461 123.216L82.3076 123.216L122.461 83.0337L122.461 123.216Z" fill="white" fill-opacity="0.01" stroke="white" stroke-width="3" stroke-linecap="round" stroke-linejoin="round"/>
<path d="M323.231 42.1816L363.385 42.1816L363.385 82.3635L323.231 82.3635L323.231 42.1816Z" fill="white" fill-opacity="0.01" stroke="white" stroke-width="3" stroke-linecap="round" stroke-linejoin="round"/>
<path d="M363.385 82.3635L323.231 82.3635L363.385 42.1816L363.385 82.3635Z" fill="white" fill-opacity="0.01" stroke="white" stroke-width="3" stroke-linecap="round" stroke-linejoin="round"/>
<path d="M483.846 403.818L524 403.818L524 444L483.846 444L483.846 403.818Z" fill="white" fill-opacity="0.01" stroke="white" stroke-width="3" stroke-linecap="round" stroke-linejoin="round"/>
<path d="M524 444L483.846 444L524 403.818L524 444Z" fill="white" fill-opacity="0.01" stroke="white" stroke-width="3" stroke-linecap="round" stroke-linejoin="round"/>
<path d="M82.3076 123.215L122.461 123.215L122.461 163.397L82.3076 163.397L82.3076 123.215Z" fill="white" fill-opacity="0.01" stroke="white" stroke-width="3" stroke-linecap="round" stroke-linejoin="round"/>
<path d="M122.461 163.397L82.3076 163.397L122.461 123.215L122.461 163.397Z" fill="white" fill-opacity="0.01" stroke="white" stroke-width="3" stroke-linecap="round" stroke-linejoin="round"/>
<path d="M162.615 1.99999L242.923 2L242.923 82.3636L162.615 82.3636L162.615 1.99999Z" fill="white" fill-opacity="0.01" stroke="white" stroke-width="3" stroke-linecap="round" stroke-linejoin="round"/>
<path d="M242.923 82.3636L162.615 82.3636L242.923 2L242.923 82.3636Z" fill="white" fill-opacity="0.01" stroke="white" stroke-width="3" stroke-linecap="round" stroke-linejoin="round"/>
<path d="M162.615 2L122.461 2L122.461 82.3636H162.615V2Z" fill="white" fill-opacity="0.01" stroke="white" stroke-width="3" stroke-linecap="round" stroke-linejoin="round"/>
<path d="M122.461 2L122.461 82.3636C133.111 82.3636 143.324 78.1302 150.854 70.5947C158.385 63.0591 162.615 52.8387 162.615 42.1818C162.615 31.5249 158.385 21.3045 150.854 13.769C143.324 6.23343 133.111 2 122.461 2Z" fill="white" fill-opacity="0.01" stroke="white" stroke-width="3" stroke-linecap="round" stroke-linejoin="round"/>
<path d="M465.777 61.6611H502.397" stroke="white" stroke-width="2" stroke-miterlimit="10" stroke-linecap="round" stroke-linejoin="round"/>
<path d="M498.329 28.8667L471.716 44.4936" stroke="white" stroke-width="2" stroke-miterlimit="10" stroke-linecap="round" stroke-linejoin="round"/>
<path d="M496.789 25.3447L470.176 41.0817" stroke="white" stroke-width="2" stroke-miterlimit="10" stroke-linecap="round" stroke-linejoin="round"/>
<path d="M494.04 61.7713L489.531 51.7568H487.441" stroke="white" stroke-width="2" stroke-miterlimit="10" stroke-linecap="round" stroke-linejoin="round"/>
<path d="M468.746 38.5508L473.695 47.9049C473.695 47.9049 468.086 49.6657 466.436 45.924C465.447 43.8331 465.777 42.0723 466.216 41.0819" stroke="white" stroke-width="2" stroke-miterlimit="10" stroke-linecap="round" stroke-linejoin="round"/>
<path d="M481.832 38.9912V61.0009" stroke="white" stroke-width="2" stroke-miterlimit="10" stroke-linecap="round" stroke-linejoin="round"/>
<path d="M486.892 35.4692V51.7564" stroke="white" stroke-width="2" stroke-miterlimit="10" stroke-linecap="round" stroke-linejoin="round"/>
<path d="M495.909 22.5938L499.868 30.4072" stroke="white" stroke-width="2" stroke-miterlimit="10" stroke-linecap="round" stroke-linejoin="round"/>
<path d="M499.868 30.4072V61.661" stroke="white" stroke-width="2" stroke-miterlimit="10" stroke-linecap="round" stroke-linejoin="round"/>
<path d="M499.728 383.225L495.885 379.379C495.404 378.899 495.404 378.178 495.885 377.697C498.166 375.414 498.166 371.568 495.885 369.285C493.603 367.001 489.76 367.001 487.478 369.285C485.197 371.568 485.197 375.414 487.478 377.697C489.04 379.259 491.201 379.74 493.243 379.259L495.164 378.538" stroke="white" stroke-width="2" stroke-miterlimit="10" stroke-linecap="round" stroke-linejoin="round"/>
<path d="M496.246 362.435V347.533C496.246 345.61 494.684 344.048 492.763 344.048H471.267C469.345 344.048 467.784 345.61 467.784 347.533V379.259C467.784 381.182 469.345 382.744 471.267 382.744H483.636" stroke="white" stroke-width="2" stroke-miterlimit="10" stroke-linecap="round" stroke-linejoin="round"/>
<path d="M472.948 350.778H491.562" stroke="white" stroke-width="2" stroke-miterlimit="10" stroke-linecap="round" stroke-linejoin="round"/>
<path d="M472.948 355.945H491.562" stroke="white" stroke-width="2" stroke-miterlimit="10" stroke-linecap="round" stroke-linejoin="round"/>
<path d="M472.948 361.233H483.155" stroke="white" stroke-width="2" stroke-miterlimit="10" stroke-linecap="round" stroke-linejoin="round"/>
<path d="M443.692 82.3638H403.539V162.727H443.692V82.3638Z" fill="white" fill-opacity="0.01" stroke="white" stroke-width="3" stroke-linecap="round" stroke-linejoin="round"/>
<path d="M403.539 82.3638V162.727C414.188 162.727 424.401 158.494 431.932 150.958C439.462 143.423 443.692 133.202 443.692 122.546C443.692 111.889 439.462 101.668 431.932 94.1328C424.401 86.5972 414.188 82.3638 403.539 82.3638Z" fill="white" fill-opacity="0.01" stroke="white" stroke-width="3" stroke-linecap="round" stroke-linejoin="round"/>
<path d="M403.539 82.3638L363.385 82.3638L363.385 122.546L403.539 122.546L403.539 82.3638Z" fill="white" fill-opacity="0.01" stroke="white" stroke-width="3" stroke-linecap="round" stroke-linejoin="round"/>
<path d="M383.462 122.546C394.55 122.546 403.539 113.551 403.539 102.455C403.539 91.3588 394.55 82.3638 383.462 82.3638C372.374 82.3638 363.385 91.3588 363.385 102.455C363.385 113.551 372.374 122.546 383.462 122.546Z" fill="white" fill-opacity="0.01" stroke="white" stroke-width="3" stroke-linecap="round" stroke-linejoin="round"/>
<path d="M362.715 202.909H322.562V283.272H362.715V202.909Z" fill="white" fill-opacity="0.01" stroke="white" stroke-width="3" stroke-linecap="round" stroke-linejoin="round"/>
<path d="M322.562 202.909V283.272C333.211 283.272 343.424 279.039 350.955 271.503C358.485 263.968 362.715 253.747 362.715 243.091C362.715 232.434 358.485 222.213 350.955 214.678C343.424 207.142 333.211 202.909 322.562 202.909Z" fill="white" fill-opacity="0.01" stroke="white" stroke-width="3" stroke-linecap="round" stroke-linejoin="round"/>
<path d="M322.562 202.909L282.408 202.909L282.408 243.091L322.562 243.091L322.562 202.909Z" fill="white" fill-opacity="0.01" stroke="white" stroke-width="3" stroke-linecap="round" stroke-linejoin="round"/>
<path d="M302.485 243.091C313.573 243.091 322.562 234.095 322.562 223C322.562 211.904 313.573 202.909 302.485 202.909C291.396 202.909 282.408 211.904 282.408 223C282.408 234.096 291.396 243.091 302.485 243.091Z" fill="white" fill-opacity="0.01" stroke="white" stroke-width="3" stroke-linecap="round" stroke-linejoin="round"/>
<path d="M362.715 283.273L322.562 283.273L322.562 323.455L362.715 323.455L362.715 283.273Z" fill="white" fill-opacity="0.01" stroke="white" stroke-width="3" stroke-linecap="round" stroke-linejoin="round"/>
<path d="M403.539 122.545L323.231 122.545L323.231 202.909L403.539 202.909L403.539 122.545Z" fill="white" fill-opacity="0.01" stroke="white" stroke-width="3" stroke-linecap="round" stroke-linejoin="round"/>
<path d="M363.385 202.909C385.561 202.909 403.539 184.919 403.539 162.727C403.539 140.535 385.561 122.545 363.385 122.545C341.208 122.545 323.231 140.535 323.231 162.727C323.231 184.919 341.208 202.909 363.385 202.909Z" fill="white" fill-opacity="0.01" stroke="white" stroke-width="3" stroke-linecap="round" stroke-linejoin="round"/>
<path d="M357.361 176.83C357.361 171.15 360.836 166.282 365.701 164.312L365.933 164.196C363.384 162.805 361.763 160.023 361.763 157.01C361.763 152.373 365.469 148.664 370.102 148.664C371.492 148.664 372.651 149.012 373.809 149.591C373.809 149.591 373.809 149.591 373.925 149.591C373.925 149.591 373.577 155.966 364.543 155.966" stroke="white" stroke-width="2" stroke-miterlimit="10" stroke-linecap="round" stroke-linejoin="round"/>
<path d="M382.96 176.83C382.96 171.035 379.485 166.167 374.504 164.312L374.272 164.196C376.705 162.805 378.326 160.139 378.326 157.01C378.326 155.619 377.979 154.228 377.4 153.069" stroke="white" stroke-width="2" stroke-miterlimit="10" stroke-linecap="round" stroke-linejoin="round"/>
<path d="M362.458 166.398C362.458 166.398 369.523 172.425 377.399 166.282" stroke="white" stroke-width="2" stroke-miterlimit="10" stroke-linecap="round" stroke-linejoin="round"/>
<path d="M343.81 174.048C343.81 169.991 346.242 166.63 349.717 165.239V165.123C347.979 164.08 346.821 162.225 346.821 160.023C346.821 156.778 349.485 154.112 352.728 154.112C353.655 154.112 354.582 154.344 355.392 154.691C355.392 154.691 355.161 159.212 348.79 159.212" stroke="white" stroke-width="2" stroke-miterlimit="10" stroke-linecap="round" stroke-linejoin="round"/>
<path d="M357.825 157.241C358.288 158.053 358.52 158.98 358.52 160.023C358.52 162.225 357.361 164.08 355.624 165.123L355.74 165.239L358.172 166.862" stroke="white" stroke-width="2" stroke-miterlimit="10" stroke-linecap="round" stroke-linejoin="round"/>
<path d="M283.077 122.545L323.231 122.545L323.231 162.727L283.077 162.727L283.077 122.545Z" fill="white" fill-opacity="0.01" stroke="white" stroke-width="3" stroke-linecap="round" stroke-linejoin="round"/>
<path d="M323.231 162.727L283.077 162.727L323.231 122.545L323.231 162.727Z" fill="white" fill-opacity="0.01" stroke="white" stroke-width="3" stroke-linecap="round" stroke-linejoin="round"/>
<path d="M443.55 162L403.4 162L403.4 202.18L443.55 202.18L443.55 162Z" fill="white" fill-opacity="0.01" stroke="white" stroke-width="3" stroke-linecap="round" stroke-linejoin="round"/>
</svg>
