<svg width="262" height="162" viewBox="0 0 262 162" fill="none" xmlns="http://www.w3.org/2000/svg">
<path d="M261 0.999996L221 1L221 41L261 41L261 0.999996Z" fill="white" fill-opacity="0.01" stroke="white" stroke-linecap="round" stroke-linejoin="round"/>
<path d="M240.669 40.5344C251.531 40.5344 260.337 31.6843 260.337 20.7672C260.337 9.85008 251.531 0.999997 240.669 0.999998C229.806 0.999999 221 9.85008 221 20.7672C221 31.6843 229.806 40.5344 240.669 40.5344Z" fill="white" fill-opacity="0.01" stroke="white" stroke-linecap="round" stroke-linejoin="round"/>
<path d="M221 0.999996L181 1L181 41L221 41L221 0.999996Z" fill="white" fill-opacity="0.01" stroke="white" stroke-linecap="round" stroke-linejoin="round"/>
<path d="M121.199 0.999997L161 1L161 41L121.199 41L121.199 0.999997Z" fill="white" fill-opacity="0.01" stroke="white" stroke-linecap="round" stroke-linejoin="round"/>
<path d="M131.15 21C125.655 21 121.2 16.5228 121.2 11C121.2 5.47715 125.655 0.999999 131.15 0.999999C136.645 1 141.1 5.47715 141.1 11C141.1 16.5228 136.645 21 131.15 21Z" fill="white" fill-opacity="0.01" stroke="white" stroke-linecap="round" stroke-linejoin="round"/>
<path d="M131.15 40.9995C125.655 40.9995 121.2 36.5224 121.2 30.9995C121.2 25.4767 125.655 20.9995 131.15 20.9995C136.645 20.9995 141.1 25.4767 141.1 30.9995C141.1 36.5224 136.645 40.9995 131.15 40.9995Z" fill="white" fill-opacity="0.01" stroke="white" stroke-linecap="round" stroke-linejoin="round"/>
<path d="M151.05 40.9995C145.554 40.9995 141.1 36.5224 141.1 30.9995C141.1 25.4767 145.555 20.9995 151.05 20.9995C156.545 20.9995 161 25.4767 161 30.9995C161 36.5224 156.545 40.9995 151.05 40.9995Z" fill="white" fill-opacity="0.01" stroke="white" stroke-linecap="round" stroke-linejoin="round"/>
<path d="M151.05 21C145.554 21 141.1 16.5228 141.1 11C141.1 5.47715 145.555 0.999999 151.05 0.999999C156.545 1 161 5.47715 161 11C161 16.5228 156.545 21 151.05 21Z" fill="white" fill-opacity="0.01" stroke="white" stroke-linecap="round" stroke-linejoin="round"/>
<path d="M161 0.999998L181 1L181 21L161 21L161 0.999998Z" fill="white" fill-opacity="0.01" stroke="white" stroke-linecap="round" stroke-linejoin="round"/>
<path d="M181 21L161 21L181 1L181 21Z" fill="white" fill-opacity="0.01" stroke="white" stroke-linecap="round" stroke-linejoin="round"/>
<path d="M161 21L181 21L181 41L161 41L161 21Z" fill="white" fill-opacity="0.01" stroke="white" stroke-linecap="round" stroke-linejoin="round"/>
<path d="M181 41L161 41L181 21L181 41Z" fill="white" fill-opacity="0.01" stroke="white" stroke-linecap="round" stroke-linejoin="round"/>
<path d="M81 0.999996L121 1L121 41L81 41L81 0.999996Z" fill="white" fill-opacity="0.01" stroke="white" stroke-linecap="round" stroke-linejoin="round"/>
<path d="M121 41L81 41L121 1L121 41Z" fill="white" fill-opacity="0.01" stroke="white" stroke-linecap="round" stroke-linejoin="round"/>
<path d="M81 1L61 1L61 41H81V1Z" fill="white" fill-opacity="0.01" stroke="white" stroke-linecap="round" stroke-linejoin="round"/>
<path d="M61 1L61 41C66.3043 41 71.3914 38.8929 75.1421 35.1421C78.8929 31.3914 81 26.3043 81 21C81 15.6957 78.8929 10.6086 75.1421 6.85786C71.3914 3.10714 66.3043 1 61 1Z" fill="white" fill-opacity="0.01" stroke="white" stroke-linecap="round" stroke-linejoin="round"/>
<path d="M232.068 30.6953H250.265" stroke="white" stroke-miterlimit="10" stroke-linecap="round" stroke-linejoin="round"/>
<path d="M248.244 14.3721L235.02 22.1502" stroke="white" stroke-miterlimit="10" stroke-linecap="round" stroke-linejoin="round"/>
<path d="M247.479 12.6191L234.254 20.452" stroke="white" stroke-miterlimit="10" stroke-linecap="round" stroke-linejoin="round"/>
<path d="M246.112 30.7502L243.872 25.7656H242.833" stroke="white" stroke-miterlimit="10" stroke-linecap="round" stroke-linejoin="round"/>
<path d="M233.544 19.1924L236.003 23.8483C236.003 23.8483 233.216 24.7247 232.396 22.8623C231.904 21.8216 232.068 20.9452 232.287 20.4522" stroke="white" stroke-miterlimit="10" stroke-linecap="round" stroke-linejoin="round"/>
<path d="M240.046 19.4116V30.3667" stroke="white" stroke-miterlimit="10" stroke-linecap="round" stroke-linejoin="round"/>
<path d="M242.561 17.6587V25.7654" stroke="white" stroke-miterlimit="10" stroke-linecap="round" stroke-linejoin="round"/>
<path d="M247.042 11.25L249.009 15.139" stroke="white" stroke-miterlimit="10" stroke-linecap="round" stroke-linejoin="round"/>
<path d="M249.009 15.1392V30.6953" stroke="white" stroke-miterlimit="10" stroke-linecap="round" stroke-linejoin="round"/>
<path d="M141 41L101 41L101 81L141 81L141 41Z" fill="white" fill-opacity="0.01" stroke="white" stroke-linecap="round" stroke-linejoin="round"/>
<path d="M121 81C132.046 81 141 72.0457 141 61C141 49.9543 132.046 41 121 41C109.954 41 101 49.9543 101 61C101 72.0457 109.954 81 121 81Z" fill="white" fill-opacity="0.01" stroke="white" stroke-linecap="round" stroke-linejoin="round"/>
<path d="M181 101L221 101L221 141L181 141L181 101Z" fill="white" fill-opacity="0.01" stroke="white" stroke-linecap="round" stroke-linejoin="round"/>
<path d="M221 141L181 141L221 101L221 141Z" fill="white" fill-opacity="0.01" stroke="white" stroke-linecap="round" stroke-linejoin="round"/>
<path d="M221 41H201V81H221V41Z" fill="white" fill-opacity="0.01" stroke="white" stroke-linecap="round" stroke-linejoin="round"/>
<path d="M201 41V81C206.304 81 211.391 78.8929 215.142 75.1421C218.893 71.3914 221 66.3043 221 61C221 55.6957 218.893 50.6086 215.142 46.8579C211.391 43.1071 206.304 41 201 41Z" fill="white" fill-opacity="0.01" stroke="white" stroke-linecap="round" stroke-linejoin="round"/>
<path d="M201 41L181 41L181 61L201 61L201 41Z" fill="white" fill-opacity="0.01" stroke="white" stroke-linecap="round" stroke-linejoin="round"/>
<path d="M191 61C196.523 61 201 56.5228 201 51C201 45.4772 196.523 41 191 41C185.477 41 181 45.4772 181 51C181 56.5228 185.477 61 191 61Z" fill="white" fill-opacity="0.01" stroke="white" stroke-linecap="round" stroke-linejoin="round"/>
<path d="M181 101H161V141H181V101Z" fill="white" fill-opacity="0.01" stroke="white" stroke-linecap="round" stroke-linejoin="round"/>
<path d="M161 101V141C166.304 141 171.391 138.893 175.142 135.142C178.893 131.391 181 126.304 181 121C181 115.696 178.893 110.609 175.142 106.858C171.391 103.107 166.304 101 161 101Z" fill="white" fill-opacity="0.01" stroke="white" stroke-linecap="round" stroke-linejoin="round"/>
<path d="M161 101L141 101L141 121L161 121L161 101Z" fill="white" fill-opacity="0.01" stroke="white" stroke-linecap="round" stroke-linejoin="round"/>
<path d="M151 121C156.523 121 161 116.523 161 111C161 105.477 156.523 101 151 101C145.477 101 141 105.477 141 111C141 116.523 145.477 121 151 121Z" fill="white" fill-opacity="0.01" stroke="white" stroke-linecap="round" stroke-linejoin="round"/>
<path d="M201 61L161 61L161 101L201 101L201 61Z" fill="white" fill-opacity="0.01" stroke="white" stroke-linecap="round" stroke-linejoin="round"/>
<path d="M181 101C192.046 101 201 92.0457 201 81C201 69.9543 192.046 61 181 61C169.954 61 161 69.9543 161 81C161 92.0457 169.954 101 181 101Z" fill="white" fill-opacity="0.01" stroke="white" stroke-linecap="round" stroke-linejoin="round"/>
<path d="M178 88.0193C178 85.1923 179.731 82.7693 182.154 81.7885L182.269 81.7308C181 81.0385 180.192 79.6539 180.192 78.1539C180.192 75.8462 182.038 74 184.346 74C185.038 74 185.615 74.1731 186.192 74.4615C186.192 74.4615 186.192 74.4615 186.25 74.4615C186.25 74.4615 186.077 77.6346 181.577 77.6346" stroke="white" stroke-miterlimit="10" stroke-linecap="round" stroke-linejoin="round"/>
<path d="M190.75 88.0193C190.75 85.1347 189.019 82.7116 186.538 81.7886L186.423 81.7309C187.634 81.0386 188.442 79.7116 188.442 78.1539C188.442 77.4616 188.269 76.7693 187.981 76.1924" stroke="white" stroke-miterlimit="10" stroke-linecap="round" stroke-linejoin="round"/>
<path d="M180.538 82.8267C180.538 82.8267 184.057 85.8267 187.98 82.769" stroke="white" stroke-miterlimit="10" stroke-linecap="round" stroke-linejoin="round"/>
<path d="M171.25 86.6345C171.25 84.6153 172.462 82.9422 174.192 82.2499L174.192 82.1922C173.327 81.673 172.75 80.7499 172.75 79.6537C172.75 78.0384 174.077 76.7114 175.692 76.7114C176.154 76.7114 176.615 76.8268 177.019 76.9999C177.019 76.9999 176.904 79.2499 173.731 79.2499" stroke="white" stroke-miterlimit="10" stroke-linecap="round" stroke-linejoin="round"/>
<path d="M178.231 78.269C178.462 78.6729 178.577 79.1344 178.577 79.6537C178.577 80.7498 178 81.6729 177.135 82.1921L177.192 82.2498L178.404 83.0575" stroke="white" stroke-miterlimit="10" stroke-linecap="round" stroke-linejoin="round"/>
<path d="M141 61L161 61L161 81L141 81L141 61Z" fill="white" fill-opacity="0.01" stroke="white" stroke-linecap="round" stroke-linejoin="round"/>
<path d="M161 81L141 81L161 61L161 81Z" fill="white" fill-opacity="0.01" stroke="white" stroke-linecap="round" stroke-linejoin="round"/>
<path d="M221 41L261 41L261 81L221 81L221 41Z" fill="white" fill-opacity="0.01" stroke="white" stroke-linecap="round" stroke-linejoin="round"/>
<path d="M261 81L221 81L261 41L261 81Z" fill="white" fill-opacity="0.01" stroke="white" stroke-linecap="round" stroke-linejoin="round"/>
<path d="M221 81L261 81L261 121L221 121L221 81Z" fill="white" fill-opacity="0.01" stroke="white" stroke-linecap="round" stroke-linejoin="round"/>
<path d="M231 101C225.477 101 221 96.5227 221 90.9999C221 85.4771 225.477 81 231 81C236.523 81 241 85.4771 241 90.9999C241 96.5227 236.523 101 231 101Z" fill="white" fill-opacity="0.01" stroke="white" stroke-linecap="round" stroke-linejoin="round"/>
<path d="M231 121C225.477 121 221 116.523 221 111C221 105.477 225.477 101 231 101C236.523 101 241 105.477 241 111C241 116.523 236.523 121 231 121Z" fill="white" fill-opacity="0.01" stroke="white" stroke-linecap="round" stroke-linejoin="round"/>
<path d="M251 121C245.477 121 241 116.523 241 111C241 105.477 245.477 101 251 101C256.523 101 261 105.477 261 111C261 116.523 256.523 121 251 121Z" fill="white" fill-opacity="0.01" stroke="white" stroke-linecap="round" stroke-linejoin="round"/>
<path d="M251 101C245.477 101 241 96.5227 241 90.9999C241 85.4771 245.477 81 251 81C256.523 81 261 85.4771 261 90.9999C261 96.5227 256.523 101 251 101Z" fill="white" fill-opacity="0.01" stroke="white" stroke-linecap="round" stroke-linejoin="round"/>
<path d="M221 121L221 141L261 141L261 121L221 121Z" fill="white" fill-opacity="0.01" stroke="white" stroke-linecap="round" stroke-linejoin="round"/>
<path d="M221 141L261 141C261 135.696 258.893 130.609 255.142 126.858C251.391 123.107 246.304 121 241 121C235.696 121 230.609 123.107 226.858 126.858C223.107 130.609 221 135.696 221 141Z" fill="white" fill-opacity="0.01" stroke="white" stroke-linecap="round" stroke-linejoin="round"/>
<path d="M260.953 141L241 141L241 161L260.953 161L260.953 141Z" fill="white" fill-opacity="0.01" stroke="white" stroke-linecap="round" stroke-linejoin="round"/>
<path d="M61 0.999996L21 1L21 41L61 41L61 0.999996Z" fill="white" fill-opacity="0.01" stroke="white" stroke-linecap="round" stroke-linejoin="round"/>
<path d="M41 41C52.0457 41 61 32.0457 61 21C61 9.9543 52.0457 0.999997 41 0.999998C29.9543 0.999999 21 9.95431 21 21C21 32.0457 29.9543 41 41 41Z" fill="white" fill-opacity="0.01" stroke="white" stroke-linecap="round" stroke-linejoin="round"/>
<path d="M1 0.999998L21 1L21 21L0.999998 21L1 0.999998Z" fill="white" fill-opacity="0.01" stroke="white" stroke-linecap="round" stroke-linejoin="round"/>
<path d="M21 21L0.999998 21L21 1L21 21Z" fill="white" fill-opacity="0.01" stroke="white" stroke-linecap="round" stroke-linejoin="round"/>
<path d="M81 41L101 41L101 61L81 61L81 41Z" fill="white" fill-opacity="0.01" stroke="white" stroke-linecap="round" stroke-linejoin="round"/>
<path d="M101 61L81 61L101 41L101 61Z" fill="white" fill-opacity="0.01" stroke="white" stroke-linecap="round" stroke-linejoin="round"/>
<path d="M221 81L201 81L201 101L221 101L221 81Z" fill="white" fill-opacity="0.01" stroke="white" stroke-linecap="round" stroke-linejoin="round"/>
</svg>
