<svg width="80" height="80" viewBox="0 0 80 80" fill="none" xmlns="http://www.w3.org/2000/svg">
<path d="M18.7142 29.929C18.7142 37.6432 22.7857 44.286 28.9999 47.7146L28.5713 48.1432C16.5714 52.8574 8 64.8574 8 79.0002" stroke="#0A5C6D" stroke-width="2" stroke-miterlimit="10" stroke-linecap="round" stroke-linejoin="round"/>
<path d="M71.214 78.9999C71.214 64.6428 62.4284 52.6428 50.4284 47.9286L49.7856 47.5C55.7855 43.8572 59.8569 37.4286 59.8569 29.7144" stroke="#0A5C6D" stroke-width="2" stroke-miterlimit="10" stroke-linecap="round" stroke-linejoin="round"/>
<path d="M40.5709 1C33.4995 3.99999 28.1424 5.92855 20.6424 5.71427C17.6424 11.2857 11.8567 18.5714 11.8567 18.5714L18.4995 23.4999C18.4995 23.4999 25.9995 17.0714 40.1423 17.0714C51.7137 17.0714 56.2137 21.5713 56.2137 21.5713C56.2137 21.5713 50.8566 26.7142 40.3566 26.7142C29.8566 26.7142 26.6424 24.1428 26.6424 24.1428" stroke="#0A5C6D" stroke-width="2" stroke-miterlimit="10" stroke-linecap="round" stroke-linejoin="round"/>
<path d="M40.5717 1C47.6431 3.99999 53.0002 5.92855 60.5002 5.71427C63.5002 11.2857 69.2859 18.5714 69.2859 18.5714L62.8573 23.4999" stroke="#0A5C6D" stroke-width="2" stroke-miterlimit="10" stroke-linecap="round" stroke-linejoin="round"/>
<path d="M19.3567 50.7146C19.3567 50.7146 13.3567 53.7146 9.71386 60.1431" stroke="#0A5C6D" stroke-width="2" stroke-miterlimit="10" stroke-linecap="round" stroke-linejoin="round"/>
<path d="M59.4284 49.6431C59.4284 49.6431 65.2141 52.8573 68.6426 59.5002" stroke="#0A5C6D" stroke-width="2" stroke-miterlimit="10" stroke-linecap="round" stroke-linejoin="round"/>
<path d="M26.6432 49.8569C26.6432 49.8569 27.2861 58.4283 33.0717 64.6426C39.7146 56.9283 39.7146 56.9283 39.7146 56.9283V78.1425" stroke="#0A5C6D" stroke-width="2" stroke-miterlimit="10" stroke-linecap="round" stroke-linejoin="round"/>
<path d="M39.7137 56.9284L46.1423 64.4284C46.1423 64.4284 51.2851 60.7855 52.7851 54.5713" stroke="#0A5C6D" stroke-width="2" stroke-miterlimit="10" stroke-linecap="round" stroke-linejoin="round"/>
<path d="M29.215 47.7141C29.215 47.7141 35.215 51.1427 43.5721 50.2855" stroke="#0A5C6D" stroke-width="2" stroke-miterlimit="10" stroke-linecap="round" stroke-linejoin="round"/>
</svg>
