<svg width="80" height="80" viewBox="0 0 80 80" fill="none" xmlns="http://www.w3.org/2000/svg">
<path d="M50.5724 1H20.9426V24.5519C20.9426 24.5519 23.475 36.2013 33.3516 45.8247C42.2153 45.8247 46.2672 45.8247 46.2672 45.8247" stroke="#0A5C6D" stroke-width="2" stroke-miterlimit="10" stroke-linecap="round" stroke-linejoin="round"/>
<path d="M58.4216 1C58.4216 1 58.4216 17.461 58.4216 23.2857C58.4216 29.1104 55.6359 36.4545 51.0774 43.039" stroke="#0A5C6D" stroke-width="2" stroke-miterlimit="10" stroke-linecap="round" stroke-linejoin="round"/>
<path d="M35.1239 51.3958C35.1239 51.3958 33.6044 61.5256 28.033 66.3373" stroke="#0A5C6D" stroke-width="2" stroke-miterlimit="10" stroke-linecap="round" stroke-linejoin="round"/>
<path d="M47.2787 51.3958C47.2787 51.3958 48.7982 61.5256 54.3696 66.3373" stroke="#0A5C6D" stroke-width="2" stroke-miterlimit="10" stroke-linecap="round" stroke-linejoin="round"/>
<path d="M24.4865 78.4933V67.8569H57.6618V78.9998H31.3242" stroke="#0A5C6D" stroke-width="2" stroke-miterlimit="10" stroke-linecap="round" stroke-linejoin="round"/>
<path d="M20.1818 10.6233C20.1818 10.6233 13.8506 10.1168 11.8247 4.79858C7.77273 4.79858 6 4.79858 6 4.79858V26.5778C6 26.5778 9.29221 32.4025 17.1429 32.909" stroke="#0A5C6D" stroke-width="2" stroke-miterlimit="10" stroke-linecap="round" stroke-linejoin="round"/>
<path d="M60.1958 10.6233C60.1958 10.6233 66.527 10.1168 68.5529 4.79858C72.6049 4.79858 74.3776 4.79858 74.3776 4.79858V26.5778C74.3776 26.5778 71.0854 32.4025 63.2348 32.909" stroke="#0A5C6D" stroke-width="2" stroke-miterlimit="10" stroke-linecap="round" stroke-linejoin="round"/>
</svg>
