<svg width="269" height="269" viewBox="0 0 269 269" fill="none" xmlns="http://www.w3.org/2000/svg">
<line y1="-0.5" x2="144.722" y2="-0.5" transform="matrix(0.27881 0.960346 0.960346 -0.27881 137.489 96.3672)" stroke="white"/>
<line x1="133.486" y1="96.5066" x2="93.1356" y2="235.49" stroke="white"/>
<line x1="100.128" y1="212.434" x2="170.367" y2="212.434" stroke="white"/>
<line x1="100.278" y1="212.457" x2="176.494" y2="236.368" stroke="white"/>
<line x1="107.6" y1="188.522" x2="162.894" y2="188.522" stroke="white"/>
<line x1="106.28" y1="188.554" x2="170.541" y2="212.465" stroke="white"/>
<line x1="113.578" y1="164.611" x2="155.422" y2="164.611" stroke="white"/>
<line x1="121.05" y1="141.473" x2="149.444" y2="141.473" stroke="white"/>
<line x1="121.329" y1="141.558" x2="155.701" y2="164.697" stroke="white"/>
<line x1="113.796" y1="164.661" x2="163.112" y2="188.573" stroke="white"/>
<line y1="-0.5" x2="67.1669" y2="-0.5" transform="matrix(-0.934487 0.355996 -0.355995 -0.934488 162.895 187.528)" stroke="white"/>
<line x1="170.514" y1="211.917" x2="92.8026" y2="235.828" stroke="white"/>
<line x1="155.646" y1="164.064" x2="107.824" y2="187.976" stroke="white"/>
<line x1="149.696" y1="143.126" x2="113.83" y2="164.048" stroke="white"/>
<line x1="128.522" y1="116.066" x2="141.972" y2="116.066" stroke="white"/>
<line x1="127.403" y1="116.236" x2="149.749" y2="141.561" stroke="white"/>
<line x1="142.348" y1="116.896" x2="121.426" y2="140.807" stroke="white"/>
<rect x="62.6494" y="61.4668" width="162.273" height="13.45" transform="rotate(19.1336 62.6494 61.4668)" fill="white"/>
<rect x="215.351" y="108.789" width="9.92461" height="25.2167" transform="rotate(18.8835 215.351 108.789)" fill="white"/>
<line x1="214.206" y1="132.233" x2="214.206" y2="223.395" stroke="white"/>
<line x1="209.722" y1="132.233" x2="209.722" y2="223.395" stroke="white"/>
<rect x="200.255" y="221.9" width="23.9111" height="14.9444" fill="white"/>
<line x1="34.8721" y1="97.8613" x2="34.8721" y2="236.845" stroke="white"/>
<path d="M7.47217 248.801C7.47217 241.372 13.4939 235.351 20.9222 235.351H248.078C255.506 235.351 261.528 241.372 261.528 248.801H7.47217Z" fill="white"/>
<path d="M62.0194 75.4439C59.6283 82.0195 51.0601 99.6041 47.0749 107.575C44.5842 112.058 38.706 117.887 35.1194 105.333C30.636 89.6415 36.6138 59.0054 37.361 56.0165C38.1083 53.0276 53.0527 26.8745 65.0083 22.3912C76.9638 17.9078 75.4694 24.6328 75.4694 29.8634C75.4694 35.0939 65.0083 67.2245 62.0194 75.4439Z" fill="white"/>

</svg>
