<svg width="24" height="24" viewBox="0 0 24 24" fill="currentColor" xmlns="http://www.w3.org/2000/svg">
<g clip-path="url(#clip0_62_2098)">
<path d="M16.5489 13.8974C16.1986 13.6799 15.6736 13.7399 15.3819 14.0324L13.0614 16.3499C12.9207 16.4905 12.73 16.5695 12.5311 16.5695C12.3322 16.5695 12.1415 16.4905 12.0009 16.3499L6.78762 11.1374C6.64701 10.9967 6.56803 10.806 6.56803 10.6071C6.56803 10.4083 6.64701 10.2175 6.78762 10.0769L8.97236 7.8929C9.26486 7.6004 9.30762 7.08664 9.06987 6.74989L5.09487 1.11514C5.03989 1.03552 4.96904 0.968122 4.88678 0.91718C4.80451 0.866237 4.71261 0.832852 4.61682 0.819118C4.52104 0.805385 4.42346 0.811601 4.33019 0.837375C4.23693 0.86315 4.15 0.907927 4.07486 0.968894C4.07486 0.968894 0.974365 3.42889 0.974365 5.69014C0.974365 14.9414 8.47436 22.4406 17.7241 22.4406C19.9854 22.4406 22.1851 18.2901 22.1851 18.2901C22.2778 18.1098 22.3 17.9014 22.2473 17.7056C22.1946 17.5098 22.0708 17.3406 21.9001 17.2311L16.5489 13.8981V13.8974Z" fill="#currentColor"/>
<path d="M20.8675 2.80624C19.1115 1.05018 16.803 0.172156 14.4945 0.166342V1.8061C16.3785 1.8061 18.2683 2.53295 19.7046 3.96919C21.1408 5.40544 21.8677 7.29523 21.8677 9.17921L23.5074 9.17921C23.5071 6.78892 22.5576 4.49659 20.8675 2.80624ZM14.4306 3.42842V5.09144C15.4889 5.09144 16.5588 5.49847 17.367 6.30672C18.1753 7.11498 18.5823 8.18489 18.5823 9.24318L20.2453 9.24318C20.2453 7.7546 19.6755 6.26602 18.5416 5.13214C17.4077 3.99827 15.9192 3.42842 14.4306 3.42842Z" fill="#currentColor"/>
</g>
<defs>
<clipPath id="clip0_62_2098">
<rect width="24" height="24" fill="currentColor"/>
</clipPath>
</defs>
</svg>
