<?xml version="1.0" encoding="utf-8"?>
<svg version="1.1" xmlns="http://www.w3.org/2000/svg" xmlns:xlink="http://www.w3.org/1999/xlink" x="0px" y="0px"
	 viewBox="0 0 673.5 611.3" style="enable-background:new 0 0 673.5 611.3;" xml:space="preserve">
<path class="tap st0" d="M64,152.9c0-18.8,4.7-37.1,11.7-54.6c7.8-19.4,17.8-37.6,31.9-53.3c13.8-15.3,29.7-27.9,47.6-38.1
	c14.3-8.1,26.1,2.7,27.9,14.1c0.7,4.4-0.9,9.1-1.7,13.7c-4.9,27.1-13.3,53.2-22.1,79.2c-1.1,3.2-0.5,4.1,2.2,5
	c32.2,11.3,64.4,22.5,96.6,33.9c58.3,20.5,116.6,41.2,175,61.7c36.3,12.8,72.7,25.3,109,38.2c3.8,1.3,5.5,0.5,6.7-3
	c1.4-4.2,3-8.3,4.5-12.4c8.9,3.2,17.6,6.2,26.7,9.4c-4.4,13.3-8.5,26.2-13,39c-3.5,9.9-6.7,19.9-11.4,29.2c-0.4,0.8-0.7,1.5-1,2.3
	l-21.9-6.6c-0.9-0.9-2.4-1.6-4.7-1.8c1.3-3.8,2.3-6.9,3.4-10c2.2-6.1,2.2-6.1-4-8.3C475.9,272,204,175.5,144.2,154.4
	c-2.8,6.8-5.3,13.3-8.1,19.6c-9.5,22-19,44-28.8,65.8c-4.8,10.6-19.4,13.1-27.5,4.8c-3.3-3.4-5.6-7.8-8.7-12.9
	C71.1,231.6,64,214.3,64,152.9z"/>
<rect class="rect st0" x="64" y="182.8" width="5.7" height="400.5"/>
<rect class="rect st0" x="68" y="182.8" width="5.7" height="400.5"/>
<rect class="rect2 st0" x="540" y="252.8" width="7.7" height="350.5"/>
<rect class="rect3 st0" x="550" y="252.8" width="7.7" height="350.5"/>
<path class="st0" d="M636.3,574.9c-18.2,0-36.3,0-54.5,0.1c-4,0-5.5-1.2-5.4-5.4c0.3-10.6,0.1-21.3,0.1-32.6c-1.5,0-3,0-4.5,0h-11.2
	c-1,0-1.9,0.1-2.9,0.1c-1,0.1-1.8,0-2.5-0.1h-44.1v37.9c-18.5,0-36.2-0.1-53.9,0.1c-3.8,0-5.1-1.2-6.1-4.7
	c-11.9-42-24-83.9-36-125.8c-10.2-35.7-20.4-71.4-30.6-107.1c-10.3-35.9-20.5-71.7-30.8-107.6c-0.4-1.3-3.8-13.9-4.2-16l-2.5-4.2
	c-4.7-7.9-16.1-7.8-20.7,0.1l-2.8,4.8c-2.8,10-5.4,19.5-8.1,29c-11.8,41.4-23.7,82.9-35.6,124.3c-14.5,50.7-29.1,101.5-43.7,152.2
	c-4.8,16.7-9.7,33.3-14.2,50c-1.1,4.1-2.9,5-6.9,5c-37.4-0.1-74.8-0.1-112.3-0.1l0,0.1l-14.7-0.1c-3.8,0-7.6,0-11.5,0
	c-1.4,0-2.6,0-3.5-0.1l-11.8,0c-0.5,0.1-1.2,0.2-2,0.2c-6.7-0.2-13.3,0.1-20,0c-12.9-0.2-23.2,4.9-31.1,14.8c-5,6.2-8.6,13-8.5,21.5
	h673.5C673.6,593.1,654.8,574.8,636.3,574.9z M423.2,506.2c-25.9-9.2-50.7-18-75.4-26.8c-0.1-0.5-0.1-1-0.2-1.5
	c20.1-7.2,40.3-14.3,61.2-21.8C413.5,472.6,418.1,488.6,423.2,506.2z M339.2,291.2c8.3,9.2,16.6,18.5,24.9,27.8
	c0.2,0.2,0,0.6-0.1,1.7h-55.4c1.1-1.7,1.6-2.9,2.5-3.9c7.6-8.4,15.2-16.7,22.7-25.1C335.7,289.7,337.3,289.1,339.2,291.2z
	 M322,263.9h29.5c-5.1,5.7-9.5,10.6-14.5,16.1C332.1,274.8,327.6,269.9,322,263.9z M309.2,326.8h55.7c-4,3-7.6,6-11.4,8.6
	c-4.6,3.2-9.4,6.1-14.3,8.9c-1.3,0.7-3.6,1.1-4.7,0.5c-8.7-5.4-17.2-11.1-25.7-16.7C308.9,327.7,309,327.3,309.2,326.8z
	 M334.6,354.7c0.9-0.6,3-0.5,3.9,0.2c13.8,8.9,27.5,18,41.3,27c0.3,0.2,0.4,0.8,0.9,1.7h-87.6c-0.1-0.4-0.2-0.8-0.3-1.2
	C306.7,373.2,320.6,363.9,334.6,354.7z M378.5,390.1c0.2,0.4,0.3,0.8,0.5,1.2c-9,4.2-18.1,8.5-27.1,12.7c-3.4,1.6-7.1,2.8-10.3,4.9
	c-3.7,2.4-6.8,1.8-10.5,0c-11.8-5.7-23.7-11-35.6-16.4c-0.8-0.4-1.5-1-3.6-2.4H378.5z M342.4,420.5c17.5,8.3,35.2,16.2,52.8,24.3
	c0.4,0.2,0.6,0.7,1.6,1.7H277.1c-0.1-0.3-0.2-0.5-0.3-0.8c1.5-0.7,3.1-1.4,4.6-2.1c16.3-7.7,32.7-15.2,49-23.1
	C334.6,418.4,338,418.4,342.4,420.5z M395.7,453.3c0.1,0.4,0.2,0.7,0.3,1.1c-8.5,3.1-17,6.2-25.5,9.2c-10,3.6-20,7.1-30.1,10.5
	c-2.1,0.7-4.7,1-6.7,0.3c-18.4-6.3-36.7-12.9-55.1-19.5c-0.4-0.2-0.8-0.5-2.4-1.6H395.7z M339.8,483.1c23.6,8.1,47.2,16.4,70.7,24.7
	c0.5,0.2,0.9,0.8,2.2,1.8H260.4c1.9-1.2,2.6-1.9,3.4-2.2c23.1-8.1,46.2-16.2,69.3-24.2C335.2,482.6,337.8,482.4,339.8,483.1z
	 M416.2,516.3l0.2,1.2c-11.2,3.3-22.5,6.6-33.7,9.8c-13.9,4-27.9,8-41.9,11.8c-1.8,0.5-4,0.7-5.8,0.2c-24.4-7.1-48.8-14.4-73.2-21.6
	c-0.3-0.1-0.4-0.5-1.3-1.4H416.2z M391.9,396.3c4.1,14.5,8.2,28.9,12.3,43.4c0.2,0.6-0.1,1.2-0.2,2.7c-20.1-9.2-39.7-18.3-60.6-27.8
	c8.5-4,15.7-7.5,23-10.9c6.7-3.2,13.6-6.2,20.2-9.4C389.5,392.9,391,393.4,391.9,396.3z M386.4,377.4c-0.4,0.3-0.8,0.5-1.3,0.8
	c-14.1-9.3-28.3-18.6-43.2-28.4c10.3-6.9,20-13.4,30.6-20.5C377.3,345.9,381.8,361.7,386.4,377.4z M355.4,268.6
	c4.2,14.9,8,28.6,11.8,42.3c-0.4,0.3-0.9,0.6-1.3,0.9c-8.2-8.9-16.4-17.7-25-27.1C345.8,279.3,350.1,274.5,355.4,268.6z
	 M332.8,217.8c1.9-4.3,7.8-3.7,9.1,2.5c2.2,10.2,6.9,26.4,10.1,37.4h-30.6C325.4,244.1,329.1,231,332.8,217.8z M318.2,268.7
	c4.8,5.3,8.6,9.4,12.3,13.7c0.7,0.9,1.3,3.2,0.7,3.8c-7.7,8.6-15.6,17.1-23.5,25.6c-0.5-0.2-1-0.5-1.5-0.7
	C310.1,297.4,314,283.6,318.2,268.7z M300.8,329.9c10.3,6.8,19.9,13.1,30.2,19.9c-14.4,9.6-28.4,18.9-42.5,28.2
	c-0.4-0.3-0.8-0.6-1.2-0.9C291.7,361.7,296.1,346.2,300.8,329.9z M282.7,393.1c15.5,7.1,30.3,14,46.4,21.4
	c-20.4,9.6-39.8,18.6-60.6,28.4C273.5,425.5,278,409.5,282.7,393.1z M264.7,456.4c20.9,7.3,41,14.4,61.1,21.4c0,0.5,0.1,1,0.1,1.5
	c-24.9,8.7-49.7,17.5-75.4,26.5C255.4,488.6,260,472.7,264.7,456.4z M246.6,519.4c26.4,7.8,52.2,15.4,78.1,23.1c0,0.5,0.1,1,0.1,1.5
	c-30.5,8.8-61,17.7-92.9,26.9C237,552.7,241.7,536.3,246.6,519.4z M245.5,574.5c0-0.4-0.1-0.7-0.1-1.1c3.4-1.4,6.8-3.1,10.3-4.1
	c18.6-5.3,37.3-10.4,55.9-15.6c7.7-2.1,15.3-4.3,23-6.4c1.7-0.5,3.7-0.9,5.3-0.4c29.3,8.6,58.6,17.3,87.9,26
	c0.4,0.1,0.8,0.6,2.1,1.6H245.5z M440.7,570.4c-30.2-8.9-60-17.7-89.9-26.4c0-0.4,0-0.9,0-1.3c5.6-1.7,11.1-3.4,16.7-5
	c18.3-5.3,36.5-10.4,54.8-15.8c3.5-1,5.4-1,6.5,3.1c3.9,14.4,8.1,28.7,12.1,43C441,568.4,440.8,569,440.7,570.4z"/>
</svg>
